<svg width="247" height="44" viewBox="0 0 247 44" fill="none" xmlns="http://www.w3.org/2000/svg">
<path d="M66.5958 33.27C65.0358 33.27 63.6258 32.92 62.3658 32.22C61.1058 31.5 60.1158 30.5 59.3958 29.22C58.6758 27.92 58.3158 26.42 58.3158 24.72C58.3158 23.04 58.6858 21.55 59.4258 20.25C60.1658 18.95 61.1758 17.95 62.4558 17.25C63.7358 16.55 65.1658 16.2 66.7458 16.2C68.3258 16.2 69.7558 16.55 71.0358 17.25C72.3158 17.95 73.3258 18.95 74.0658 20.25C74.8058 21.55 75.1758 23.04 75.1758 24.72C75.1758 26.4 74.7958 27.89 74.0358 29.19C73.2758 30.49 72.2358 31.5 70.9158 32.22C69.6158 32.92 68.1758 33.27 66.5958 33.27ZM66.5958 30.3C67.4758 30.3 68.2958 30.09 69.0558 29.67C69.8358 29.25 70.4658 28.62 70.9458 27.78C71.4258 26.94 71.6658 25.92 71.6658 24.72C71.6658 23.52 71.4358 22.51 70.9758 21.69C70.5158 20.85 69.9058 20.22 69.1458 19.8C68.3858 19.38 67.5658 19.17 66.6858 19.17C65.8058 19.17 64.9858 19.38 64.2258 19.8C63.4858 20.22 62.8958 20.85 62.4558 21.69C62.0158 22.51 61.7958 23.52 61.7958 24.72C61.7958 26.5 62.2458 27.88 63.1458 28.86C64.0658 29.82 65.2158 30.3 66.5958 30.3ZM86.8966 16.2C88.1966 16.2 89.3566 16.47 90.3766 17.01C91.4166 17.55 92.2266 18.35 92.8066 19.41C93.3866 20.47 93.6766 21.75 93.6766 23.25V33H90.2866V23.76C90.2866 22.28 89.9166 21.15 89.1766 20.37C88.4366 19.57 87.4266 19.17 86.1466 19.17C84.8666 19.17 83.8466 19.57 83.0866 20.37C82.3466 21.15 81.9766 22.28 81.9766 23.76V33H78.5566V16.47H81.9766V18.36C82.5366 17.68 83.2466 17.15 84.1066 16.77C84.9866 16.39 85.9166 16.2 86.8966 16.2ZM113.189 24.33C113.189 24.95 113.149 25.51 113.069 26.01H100.439C100.539 27.33 101.029 28.39 101.909 29.19C102.789 29.99 103.869 30.39 105.149 30.39C106.989 30.39 108.289 29.62 109.049 28.08H112.739C112.239 29.6 111.329 30.85 110.009 31.83C108.709 32.79 107.089 33.27 105.149 33.27C103.569 33.27 102.149 32.92 100.889 32.22C99.6491 31.5 98.6691 30.5 97.9491 29.22C97.2491 27.92 96.8991 26.42 96.8991 24.72C96.8991 23.02 97.2391 21.53 97.9191 20.25C98.6191 18.95 99.5891 17.95 100.829 17.25C102.089 16.55 103.529 16.2 105.149 16.2C106.709 16.2 108.099 16.54 109.319 17.22C110.539 17.9 111.489 18.86 112.169 20.1C112.849 21.32 113.189 22.73 113.189 24.33ZM109.619 23.25C109.599 21.99 109.149 20.98 108.269 20.22C107.389 19.46 106.299 19.08 104.999 19.08C103.819 19.08 102.809 19.46 101.969 20.22C101.129 20.96 100.629 21.97 100.469 23.25H109.619ZM129.245 20.7V23.58H116.915V20.7H129.245ZM138.094 19.26V28.41C138.094 29.03 138.234 29.48 138.514 29.76C138.814 30.02 139.314 30.15 140.014 30.15H142.114V33H139.414C137.874 33 136.694 32.64 135.874 31.92C135.054 31.2 134.644 30.03 134.644 28.41V19.26H132.694V16.47H134.644V12.36H138.094V16.47H142.114V19.26H138.094ZM152.436 33.27C150.876 33.27 149.466 32.92 148.206 32.22C146.946 31.5 145.956 30.5 145.236 29.22C144.516 27.92 144.156 26.42 144.156 24.72C144.156 23.04 144.526 21.55 145.266 20.25C146.006 18.95 147.016 17.95 148.296 17.25C149.576 16.55 151.006 16.2 152.586 16.2C154.166 16.2 155.596 16.55 156.876 17.25C158.156 17.95 159.166 18.95 159.906 20.25C160.646 21.55 161.016 23.04 161.016 24.72C161.016 26.4 160.636 27.89 159.876 29.19C159.116 30.49 158.076 31.5 156.756 32.22C155.456 32.92 154.016 33.27 152.436 33.27ZM152.436 30.3C153.316 30.3 154.136 30.09 154.896 29.67C155.676 29.25 156.306 28.62 156.786 27.78C157.266 26.94 157.506 25.92 157.506 24.72C157.506 23.52 157.276 22.51 156.816 21.69C156.356 20.85 155.746 20.22 154.986 19.8C154.226 19.38 153.406 19.17 152.526 19.17C151.646 19.17 150.826 19.38 150.066 19.8C149.326 20.22 148.736 20.85 148.296 21.69C147.856 22.51 147.636 23.52 147.636 24.72C147.636 26.5 148.086 27.88 148.986 28.86C149.906 29.82 151.056 30.3 152.436 30.3ZM177.086 20.7V23.58H164.756V20.7H177.086ZM189.115 33.27C187.555 33.27 186.145 32.92 184.885 32.22C183.625 31.5 182.635 30.5 181.915 29.22C181.195 27.92 180.835 26.42 180.835 24.72C180.835 23.04 181.205 21.55 181.945 20.25C182.685 18.95 183.695 17.95 184.975 17.25C186.255 16.55 187.685 16.2 189.265 16.2C190.845 16.2 192.275 16.55 193.555 17.25C194.835 17.95 195.845 18.95 196.585 20.25C197.325 21.55 197.695 23.04 197.695 24.72C197.695 26.4 197.315 27.89 196.555 29.19C195.795 30.49 194.755 31.5 193.435 32.22C192.135 32.92 190.695 33.27 189.115 33.27ZM189.115 30.3C189.995 30.3 190.815 30.09 191.575 29.67C192.355 29.25 192.985 28.62 193.465 27.78C193.945 26.94 194.185 25.92 194.185 24.72C194.185 23.52 193.955 22.51 193.495 21.69C193.035 20.85 192.425 20.22 191.665 19.8C190.905 19.38 190.085 19.17 189.205 19.17C188.325 19.17 187.505 19.38 186.745 19.8C186.005 20.22 185.415 20.85 184.975 21.69C184.535 22.51 184.315 23.52 184.315 24.72C184.315 26.5 184.765 27.88 185.665 28.86C186.585 29.82 187.735 30.3 189.115 30.3ZM209.416 16.2C210.716 16.2 211.876 16.47 212.896 17.01C213.936 17.55 214.746 18.35 215.326 19.41C215.906 20.47 216.196 21.75 216.196 23.25V33H212.806V23.76C212.806 22.28 212.436 21.15 211.696 20.37C210.956 19.57 209.946 19.17 208.666 19.17C207.386 19.17 206.366 19.57 205.606 20.37C204.866 21.15 204.496 22.28 204.496 23.76V33H201.076V16.47H204.496V18.36C205.056 17.68 205.766 17.15 206.626 16.77C207.506 16.39 208.436 16.2 209.416 16.2ZM235.709 24.33C235.709 24.95 235.669 25.51 235.589 26.01H222.959C223.059 27.33 223.549 28.39 224.429 29.19C225.309 29.99 226.389 30.39 227.669 30.39C229.509 30.39 230.809 29.62 231.569 28.08H235.259C234.759 29.6 233.849 30.85 232.529 31.83C231.229 32.79 229.609 33.27 227.669 33.27C226.089 33.27 224.669 32.92 223.409 32.22C222.169 31.5 221.189 30.5 220.469 29.22C219.769 27.92 219.419 26.42 219.419 24.72C219.419 23.02 219.759 21.53 220.439 20.25C221.139 18.95 222.109 17.95 223.349 17.25C224.609 16.55 226.049 16.2 227.669 16.2C229.229 16.2 230.619 16.54 231.839 17.22C233.059 17.9 234.009 18.86 234.689 20.1C235.369 21.32 235.709 22.73 235.709 24.33ZM232.139 23.25C232.119 21.99 231.669 20.98 230.789 20.22C229.909 19.46 228.819 19.08 227.519 19.08C226.339 19.08 225.329 19.46 224.489 20.22C223.649 20.96 223.149 21.97 222.989 23.25H232.139Z" fill="#1D3557"/>
<path d="M42.8132 2C40.5042 2 38.6258 3.86376 38.6258 6.15454C38.6258 6.69084 38.7325 7.22603 38.9368 7.72205L32.061 14.5437C30.3161 13.2566 28.1559 12.4938 25.8195 12.4938C23.9535 12.4938 22.1334 12.9864 20.5278 13.922L16.2078 9.00032C16.5003 8.42384 16.6535 7.78715 16.6535 7.13833C16.6535 4.848 14.7752 2.98469 12.4664 2.98469C10.1577 2.98469 8.2794 4.848 8.2794 7.13833C8.2794 9.42911 10.1577 11.2929 12.4664 11.2929C12.9028 11.2929 13.3301 11.2268 13.7413 11.0959L18.0131 15.9625C16.2842 17.875 15.3376 20.3182 15.3376 22.8931C15.3376 23.9251 15.4919 24.9455 15.7968 25.9319L6.38908 32.575C5.72806 32.1669 4.97415 31.9529 4.18715 31.9529C1.87832 31.9531 0 33.8164 0 36.1068C0 38.3976 1.87832 40.2612 4.18715 40.2612C6.49587 40.2612 8.37419 38.3976 8.37419 36.1068C8.37419 35.8002 8.3402 35.4963 8.27279 35.1988L17.2446 28.8638C18.401 30.4928 20.0143 31.77 21.8658 32.5221L20.8654 35.3206C18.7372 35.5135 17.0614 37.2993 17.0614 39.4572C17.0614 41.7477 18.9398 43.6112 21.2485 43.6112C23.5572 43.6112 25.4356 41.7477 25.4356 39.4572C25.4356 38.2387 24.891 37.0834 23.9618 36.2966L25.0463 33.2628C25.3091 33.2826 25.5679 33.2926 25.8195 33.2926C27.1621 33.2926 28.4679 33.0424 29.707 32.548L34.2057 37.9283C33.8944 38.5191 33.7313 39.1748 33.7313 39.8455C33.7313 42.1362 35.6094 44 37.9178 44C40.2268 44 42.1054 42.1362 42.1054 39.8455C42.1054 37.5551 40.2268 35.6918 37.9178 35.6918C37.5038 35.6918 37.0969 35.7518 36.7039 35.8705L32.5285 30.877C34.9328 28.8911 36.301 26.0103 36.301 22.8933C36.301 20.6372 35.5728 18.5467 34.3378 16.8406L41.2328 9.99991C41.7329 10.2023 42.2725 10.3083 42.8132 10.3083C45.1218 10.3083 47 8.44498 47 6.15465C47 3.86376 45.1218 2 42.8132 2ZM25.8195 17.2856C28.9361 17.2856 31.4716 19.8012 31.4716 22.8932C31.4716 25.9853 28.9362 28.5009 25.8195 28.5009C22.7028 28.5009 20.1671 25.9853 20.1671 22.8932C20.1671 19.8012 22.7028 17.2856 25.8195 17.2856Z" fill="#1D3557"/>
</svg>
