<svg width="209" height="47" viewBox="0 0 209 47" fill="none" xmlns="http://www.w3.org/2000/svg">
<path d="M43.8132 3.5C41.2318 3.5 39.1258 5.58392 39.1258 8.15454C39.1258 8.64305 39.2046 9.13005 39.3566 9.59334L33.007 15.893C31.2438 14.6954 29.1122 13.9938 26.8195 13.9938C25.0036 13.9938 23.2287 14.4393 21.6371 15.2885L17.7977 10.9145C18.0317 10.3536 18.1535 9.75081 18.1535 9.13833C18.1535 6.56809 16.0475 4.48469 13.4664 4.48469C10.8854 4.48469 8.7794 6.56809 8.7794 9.13833C8.7794 11.7089 10.8853 13.7929 13.4664 13.7929C13.8418 13.7929 14.212 13.749 14.5728 13.6619L18.3495 17.9643C16.7241 19.9145 15.8376 22.3426 15.8376 24.8931C15.8376 25.8535 15.9651 26.8044 16.2172 27.7291L7.35997 33.9835C6.69258 33.6346 5.95284 33.4529 5.18715 33.4529C2.60596 33.4531 0.5 35.5365 0.5 38.1068C0.5 40.6774 2.60588 42.7612 5.18715 42.7612C7.76832 42.7612 9.87419 40.6774 9.87419 38.1068C9.87419 37.877 9.85714 37.6483 9.82322 37.4222L18.1349 31.5533C19.2204 32.9433 20.6335 34.06 22.2372 34.795L21.498 36.8631C19.2728 37.2214 17.5614 39.1453 17.5614 41.4572C17.5614 44.0276 19.6674 46.1112 22.2485 46.1112C24.8296 46.1112 26.9356 44.0276 26.9356 41.4572C26.9356 40.2073 26.4254 39.0192 25.5445 38.152L26.3911 35.7837C26.5354 35.7896 26.6784 35.7926 26.8195 35.7926C28.1029 35.7926 29.3554 35.5741 30.5518 35.1418L34.6157 40.0022C34.3629 40.5817 34.2313 41.2077 34.2313 41.8455C34.2313 44.416 36.3369 46.5 38.9178 46.5C41.4992 46.5 43.6054 44.4161 43.6054 41.8455C43.6054 39.2752 41.4991 37.1918 38.9178 37.1918C38.5679 37.1918 38.2221 37.2302 37.8839 37.3064L34.2275 32.9335C36.5094 30.8704 37.801 27.9924 37.801 24.8933C37.801 22.6811 37.133 20.6203 35.9878 18.9001L42.3601 12.578C42.8279 12.7296 43.3198 12.8083 43.8132 12.8083C46.3942 12.8083 48.5 10.7249 48.5 8.15465C48.5 5.58399 46.3943 3.5 43.8132 3.5ZM26.8195 19.7856C29.6637 19.7856 31.9716 22.081 31.9716 24.8932C31.9716 27.7054 29.6638 30.0009 26.8195 30.0009C23.9752 30.0009 21.6671 27.7054 21.6671 24.8932C21.6671 22.081 23.9752 19.7856 26.8195 19.7856Z" fill="#1D3557" stroke="white"/>
<path d="M48.8312 16.2C50.1312 16.2 51.2912 16.47 52.3112 17.01C53.3512 17.55 54.1612 18.35 54.7412 19.41C55.3212 20.47 55.6112 21.75 55.6112 23.25V33H52.2212V23.76C52.2212 22.28 51.8512 21.15 51.1112 20.37C50.3712 19.57 49.3612 19.17 48.0812 19.17C46.8012 19.17 45.7812 19.57 45.0212 20.37C44.2812 21.15 43.9112 22.28 43.9112 23.76V33H40.4912V16.47H43.9112V18.36C44.4712 17.68 45.1812 17.15 46.0412 16.77C46.9212 16.39 47.8512 16.2 48.8312 16.2ZM75.1236 24.33C75.1236 24.95 75.0836 25.51 75.0036 26.01H62.3736C62.4736 27.33 62.9636 28.39 63.8436 29.19C64.7236 29.99 65.8036 30.39 67.0836 30.39C68.9236 30.39 70.2236 29.62 70.9836 28.08H74.6736C74.1736 29.6 73.2636 30.85 71.9436 31.83C70.6436 32.79 69.0236 33.27 67.0836 33.27C65.5036 33.27 64.0836 32.92 62.8236 32.22C61.5836 31.5 60.6036 30.5 59.8836 29.22C59.1836 27.92 58.8336 26.42 58.8336 24.72C58.8336 23.02 59.1736 21.53 59.8536 20.25C60.5536 18.95 61.5236 17.95 62.7636 17.25C64.0236 16.55 65.4636 16.2 67.0836 16.2C68.6436 16.2 70.0336 16.54 71.2536 17.22C72.4736 17.9 73.4236 18.86 74.1036 20.1C74.7836 21.32 75.1236 22.73 75.1236 24.33ZM71.5536 23.25C71.5336 21.99 71.0836 20.98 70.2036 20.22C69.3236 19.46 68.2336 19.08 66.9336 19.08C65.7536 19.08 64.7436 19.46 63.9036 20.22C63.0636 20.96 62.5636 21.97 62.4036 23.25H71.5536ZM91.1793 20.7V23.58H78.8493V20.7H91.1793ZM100.028 19.26V28.41C100.028 29.03 100.168 29.48 100.448 29.76C100.748 30.02 101.248 30.15 101.948 30.15H104.048V33H101.348C99.8081 33 98.6281 32.64 97.8081 31.92C96.9881 31.2 96.5781 30.03 96.5781 28.41V19.26H94.6281V16.47H96.5781V12.36H100.028V16.47H104.048V19.26H100.028ZM114.37 33.27C112.81 33.27 111.4 32.92 110.14 32.22C108.88 31.5 107.89 30.5 107.17 29.22C106.45 27.92 106.09 26.42 106.09 24.72C106.09 23.04 106.46 21.55 107.2 20.25C107.94 18.95 108.95 17.95 110.23 17.25C111.51 16.55 112.94 16.2 114.52 16.2C116.1 16.2 117.53 16.55 118.81 17.25C120.09 17.95 121.1 18.95 121.84 20.25C122.58 21.55 122.95 23.04 122.95 24.72C122.95 26.4 122.57 27.89 121.81 29.19C121.05 30.49 120.01 31.5 118.69 32.22C117.39 32.92 115.95 33.27 114.37 33.27ZM114.37 30.3C115.25 30.3 116.07 30.09 116.83 29.67C117.61 29.25 118.24 28.62 118.72 27.78C119.2 26.94 119.44 25.92 119.44 24.72C119.44 23.52 119.21 22.51 118.75 21.69C118.29 20.85 117.68 20.22 116.92 19.8C116.16 19.38 115.34 19.17 114.46 19.17C113.58 19.17 112.76 19.38 112 19.8C111.26 20.22 110.67 20.85 110.23 21.69C109.79 22.51 109.57 23.52 109.57 24.72C109.57 26.5 110.02 27.88 110.92 28.86C111.84 29.82 112.99 30.3 114.37 30.3ZM139.021 20.7V23.58H126.691V20.7H139.021ZM151.05 33.27C149.49 33.27 148.08 32.92 146.82 32.22C145.56 31.5 144.57 30.5 143.85 29.22C143.13 27.92 142.77 26.42 142.77 24.72C142.77 23.04 143.14 21.55 143.88 20.25C144.62 18.95 145.63 17.95 146.91 17.25C148.19 16.55 149.62 16.2 151.2 16.2C152.78 16.2 154.21 16.55 155.49 17.25C156.77 17.95 157.78 18.95 158.52 20.25C159.26 21.55 159.63 23.04 159.63 24.72C159.63 26.4 159.25 27.89 158.49 29.19C157.73 30.49 156.69 31.5 155.37 32.22C154.07 32.92 152.63 33.27 151.05 33.27ZM151.05 30.3C151.93 30.3 152.75 30.09 153.51 29.67C154.29 29.25 154.92 28.62 155.4 27.78C155.88 26.94 156.12 25.92 156.12 24.72C156.12 23.52 155.89 22.51 155.43 21.69C154.97 20.85 154.36 20.22 153.6 19.8C152.84 19.38 152.02 19.17 151.14 19.17C150.26 19.17 149.44 19.38 148.68 19.8C147.94 20.22 147.35 20.85 146.91 21.69C146.47 22.51 146.25 23.52 146.25 24.72C146.25 26.5 146.7 27.88 147.6 28.86C148.52 29.82 149.67 30.3 151.05 30.3ZM171.351 16.2C172.651 16.2 173.811 16.47 174.831 17.01C175.871 17.55 176.681 18.35 177.261 19.41C177.841 20.47 178.131 21.75 178.131 23.25V33H174.741V23.76C174.741 22.28 174.371 21.15 173.631 20.37C172.891 19.57 171.881 19.17 170.601 19.17C169.321 19.17 168.301 19.57 167.541 20.37C166.801 21.15 166.431 22.28 166.431 23.76V33H163.011V16.47H166.431V18.36C166.991 17.68 167.701 17.15 168.561 16.77C169.441 16.39 170.371 16.2 171.351 16.2ZM197.643 24.33C197.643 24.95 197.603 25.51 197.523 26.01H184.893C184.993 27.33 185.483 28.39 186.363 29.19C187.243 29.99 188.323 30.39 189.603 30.39C191.443 30.39 192.743 29.62 193.503 28.08H197.193C196.693 29.6 195.783 30.85 194.463 31.83C193.163 32.79 191.543 33.27 189.603 33.27C188.023 33.27 186.603 32.92 185.343 32.22C184.103 31.5 183.123 30.5 182.403 29.22C181.703 27.92 181.353 26.42 181.353 24.72C181.353 23.02 181.693 21.53 182.373 20.25C183.073 18.95 184.043 17.95 185.283 17.25C186.543 16.55 187.983 16.2 189.603 16.2C191.163 16.2 192.553 16.54 193.773 17.22C194.993 17.9 195.943 18.86 196.623 20.1C197.303 21.32 197.643 22.73 197.643 24.33ZM194.073 23.25C194.053 21.99 193.603 20.98 192.723 20.22C191.843 19.46 190.753 19.08 189.453 19.08C188.273 19.08 187.263 19.46 186.423 20.22C185.583 20.96 185.083 21.97 184.923 23.25H194.073Z" fill="#1D3557"/>
<path d="M52.3112 17.01L52.0773 17.4519L52.0808 17.4537L52.3112 17.01ZM54.7412 19.41L54.3026 19.65L54.3026 19.65L54.7412 19.41ZM55.6112 33V33.5H56.1112V33H55.6112ZM52.2212 33H51.7212V33.5H52.2212V33ZM51.1112 20.37L50.7441 20.7095L50.7485 20.7141L51.1112 20.37ZM45.0212 20.37L44.6587 20.0256L44.6585 20.0259L45.0212 20.37ZM43.9112 33V33.5H44.4112V33H43.9112ZM40.4912 33H39.9912V33.5H40.4912V33ZM40.4912 16.47V15.97H39.9912V16.47H40.4912ZM43.9112 16.47H44.4112V15.97H43.9112V16.47ZM43.9112 18.36H43.4112V19.7537L44.2972 18.6779L43.9112 18.36ZM46.0412 16.77L45.843 16.311L45.8391 16.3127L46.0412 16.77ZM48.8312 16.7C50.0601 16.7 51.138 16.9547 52.0773 17.4519L52.5452 16.5681C51.4444 15.9853 50.2023 15.7 48.8312 15.7V16.7ZM52.0808 17.4537C53.0298 17.9465 53.7687 18.6742 54.3026 19.65L55.1798 19.17C54.5538 18.0258 53.6726 17.1535 52.5416 16.5663L52.0808 17.4537ZM54.3026 19.65C54.8337 20.6207 55.1112 21.8139 55.1112 23.25H56.1112C56.1112 21.6861 55.8087 20.3193 55.1798 19.17L54.3026 19.65ZM55.1112 23.25V33H56.1112V23.25H55.1112ZM55.6112 32.5H52.2212V33.5H55.6112V32.5ZM52.7212 33V23.76H51.7212V33H52.7212ZM52.7212 23.76C52.7212 22.2008 52.3308 20.929 51.4739 20.0259L50.7485 20.7141C51.3717 21.371 51.7212 22.3592 51.7212 23.76H52.7212ZM51.4783 20.0305C50.627 19.1102 49.474 18.67 48.0812 18.67V19.67C49.2484 19.67 50.1154 20.0298 50.7442 20.7095L51.4783 20.0305ZM48.0812 18.67C46.6881 18.67 45.5284 19.1102 44.6587 20.0256L45.3837 20.7144C46.034 20.0298 46.9144 19.67 48.0812 19.67V18.67ZM44.6585 20.0259C43.8017 20.929 43.4112 22.2008 43.4112 23.76H44.4112C44.4112 22.3592 44.7608 21.371 45.3839 20.7141L44.6585 20.0259ZM43.4112 23.76V33H44.4112V23.76H43.4112ZM43.9112 32.5H40.4912V33.5H43.9112V32.5ZM40.9912 33V16.47H39.9912V33H40.9912ZM40.4912 16.97H43.9112V15.97H40.4912V16.97ZM43.4112 16.47V18.36H44.4112V16.47H43.4112ZM44.2972 18.6779C44.8043 18.0621 45.4497 17.578 46.2433 17.2273L45.8391 16.3127C44.9127 16.722 44.1381 17.2979 43.5252 18.0421L44.2972 18.6779ZM46.2394 17.229C47.0554 16.8767 47.9178 16.7 48.8312 16.7V15.7C47.7846 15.7 46.787 15.9033 45.843 16.311L46.2394 17.229ZM75.0036 26.01V26.51H75.43L75.4974 26.089L75.0036 26.01ZM62.3736 26.01V25.51H61.8343L61.8751 26.0478L62.3736 26.01ZM63.8436 29.19L63.5073 29.56L63.5073 29.56L63.8436 29.19ZM70.9836 28.08V27.58H70.6728L70.5353 27.8587L70.9836 28.08ZM74.6736 28.08L75.1486 28.2362L75.3645 27.58H74.6736V28.08ZM71.9436 31.83L72.2407 32.2322L72.2417 32.2315L71.9436 31.83ZM62.8236 32.22L62.5725 32.6525L62.5808 32.6571L62.8236 32.22ZM59.8836 29.22L59.4433 29.4571L59.4478 29.4651L59.8836 29.22ZM59.8536 20.25L59.4134 20.0129L59.4121 20.0154L59.8536 20.25ZM62.7636 17.25L62.5208 16.8129L62.5178 16.8146L62.7636 17.25ZM71.2536 17.22L71.4971 16.7833L71.4971 16.7833L71.2536 17.22ZM74.1036 20.1L73.6652 20.3404L73.6669 20.3434L74.1036 20.1ZM71.5536 23.25V23.75H72.0616L72.0536 23.2421L71.5536 23.25ZM70.2036 20.22L70.5304 19.8416L70.5304 19.8416L70.2036 20.22ZM63.9036 20.22L64.2342 20.5952L64.2391 20.5908L63.9036 20.22ZM62.4036 23.25L61.9075 23.188L61.8372 23.75H62.4036V23.25ZM74.6236 24.33C74.6236 24.9292 74.5849 25.4622 74.5099 25.931L75.4974 26.089C75.5823 25.5578 75.6236 24.9708 75.6236 24.33H74.6236ZM75.0036 25.51H62.3736V26.51H75.0036V25.51ZM61.8751 26.0478C61.9835 27.4795 62.5218 28.664 63.5073 29.56L64.18 28.82C63.4055 28.116 62.9637 27.1805 62.8722 25.9722L61.8751 26.0478ZM63.5073 29.56C64.4867 30.4503 65.6896 30.89 67.0836 30.89V29.89C65.9177 29.89 64.9606 29.5297 64.18 28.82L63.5073 29.56ZM67.0836 30.89C68.0738 30.89 68.9511 30.6824 69.6934 30.2427C70.4379 29.8018 71.0151 29.146 71.432 28.3013L70.5353 27.8587C70.1921 28.554 69.7394 29.0532 69.1838 29.3823C68.6262 29.7126 67.9335 29.89 67.0836 29.89V30.89ZM70.9836 28.58H74.6736V27.58H70.9836V28.58ZM74.1987 27.9238C73.7319 29.3429 72.8851 30.5083 71.6456 31.4285L72.2417 32.2315C73.6421 31.1917 74.6154 29.8571 75.1486 28.2362L74.1987 27.9238ZM71.6466 31.4278C70.4488 32.3123 68.9387 32.77 67.0836 32.77V33.77C69.1085 33.77 70.8385 33.2677 72.2407 32.2322L71.6466 31.4278ZM67.0836 32.77C65.5802 32.77 64.2452 32.4378 63.0665 31.7829L62.5808 32.6571C63.9221 33.4022 65.427 33.77 67.0836 33.77V32.77ZM63.0747 31.7876C61.9138 31.1135 60.9968 30.1791 60.3194 28.9749L59.4478 29.4651C60.2105 30.8209 61.2534 31.8865 62.5726 32.6524L63.0747 31.7876ZM60.3239 28.983C59.6687 27.7662 59.3336 26.3499 59.3336 24.72H58.3336C58.3336 26.4901 58.6986 28.0738 59.4434 29.457L60.3239 28.983ZM59.3336 24.72C59.3336 23.0876 59.6597 21.6808 60.2952 20.4846L59.4121 20.0154C58.6876 21.3792 58.3336 22.9524 58.3336 24.72H59.3336ZM60.2939 20.487C60.9508 19.267 61.8548 18.3372 63.0094 17.6854L62.5178 16.8146C61.1925 17.5628 60.1564 18.633 59.4134 20.0129L60.2939 20.487ZM63.0065 17.6871C64.1833 17.0333 65.5379 16.7 67.0836 16.7V15.7C65.3894 15.7 63.8639 16.0667 62.5208 16.8129L63.0065 17.6871ZM67.0836 16.7C68.5686 16.7 69.873 17.0229 71.0102 17.6567L71.4971 16.7833C70.1942 16.0571 68.7187 15.7 67.0836 15.7V16.7ZM71.0102 17.6567C72.147 18.2903 73.0299 19.1818 73.6652 20.3404L74.542 19.8596C73.8174 18.5382 72.8003 17.5097 71.4971 16.7833L71.0102 17.6567ZM73.6669 20.3434C74.2997 21.4788 74.6236 22.8027 74.6236 24.33H75.6236C75.6236 22.6573 75.2676 21.1612 74.5404 19.8566L73.6669 20.3434ZM72.0536 23.2421C72.0315 21.853 71.5281 20.7032 70.5304 19.8416L69.8768 20.5984C70.6392 21.2568 71.0357 22.127 71.0537 23.2579L72.0536 23.2421ZM70.5304 19.8416C69.5488 18.9938 68.3385 18.58 66.9336 18.58V19.58C68.1288 19.58 69.0985 19.9262 69.8768 20.5984L70.5304 19.8416ZM66.9336 18.58C65.6353 18.58 64.5042 19.0023 63.5682 19.8492L64.2391 20.5908C64.983 19.9177 65.8719 19.58 66.9336 19.58V18.58ZM63.5731 19.8448C62.6277 20.6777 62.0802 21.8065 61.9075 23.188L62.8998 23.312C63.0471 22.1335 63.4996 21.2423 64.2341 20.5952L63.5731 19.8448ZM62.4036 23.75H71.5536V22.75H62.4036V23.75ZM91.1793 20.7H91.6793V20.2H91.1793V20.7ZM91.1793 23.58V24.08H91.6793V23.58H91.1793ZM78.8493 23.58H78.3493V24.08H78.8493V23.58ZM78.8493 20.7V20.2H78.3493V20.7H78.8493ZM90.6793 20.7V23.58H91.6793V20.7H90.6793ZM91.1793 23.08H78.8493V24.08H91.1793V23.08ZM79.3493 23.58V20.7H78.3493V23.58H79.3493ZM78.8493 21.2H91.1793V20.2H78.8493V21.2ZM100.028 19.26V18.76H99.5281V19.26H100.028ZM100.448 29.76L100.095 30.1136L100.107 30.1262L100.121 30.1378L100.448 29.76ZM104.048 30.15H104.548V29.65H104.048V30.15ZM104.048 33V33.5H104.548V33H104.048ZM97.8081 31.92L97.4782 32.2957L97.4782 32.2957L97.8081 31.92ZM96.5781 19.26H97.0781V18.76H96.5781V19.26ZM94.6281 19.26H94.1281V19.76H94.6281V19.26ZM94.6281 16.47V15.97H94.1281V16.47H94.6281ZM96.5781 16.47V16.97H97.0781V16.47H96.5781ZM96.5781 12.36V11.86H96.0781V12.36H96.5781ZM100.028 12.36H100.528V11.86H100.028V12.36ZM100.028 16.47H99.5281V16.97H100.028V16.47ZM104.048 16.47H104.548V15.97H104.048V16.47ZM104.048 19.26V19.76H104.548V19.26H104.048ZM99.5281 19.26V28.41H100.528V19.26H99.5281ZM99.5281 28.41C99.5281 29.0898 99.6795 29.6985 100.095 30.1136L100.802 29.4064C100.657 29.2615 100.528 28.9702 100.528 28.41H99.5281ZM100.121 30.1378C100.559 30.5178 101.211 30.65 101.948 30.65V29.65C101.285 29.65 100.937 29.5222 100.776 29.3822L100.121 30.1378ZM101.948 30.65H104.048V29.65H101.948V30.65ZM103.548 30.15V33H104.548V30.15H103.548ZM104.048 32.5H101.348V33.5H104.048V32.5ZM101.348 32.5C99.8799 32.5 98.8354 32.1566 98.138 31.5443L97.4782 32.2957C98.4208 33.1234 99.7362 33.5 101.348 33.5V32.5ZM98.138 31.5443C97.4698 30.9575 97.0781 29.9567 97.0781 28.41H96.0781C96.0781 30.1033 96.5064 31.4425 97.4782 32.2957L98.138 31.5443ZM97.0781 28.41V19.26H96.0781V28.41H97.0781ZM96.5781 18.76H94.6281V19.76H96.5781V18.76ZM95.1281 19.26V16.47H94.1281V19.26H95.1281ZM94.6281 16.97H96.5781V15.97H94.6281V16.97ZM97.0781 16.47V12.36H96.0781V16.47H97.0781ZM96.5781 12.86H100.028V11.86H96.5781V12.86ZM99.5281 12.36V16.47H100.528V12.36H99.5281ZM100.028 16.97H104.048V15.97H100.028V16.97ZM103.548 16.47V19.26H104.548V16.47H103.548ZM104.048 18.76H100.028V19.76H104.048V18.76ZM110.14 32.22L109.892 32.6542L109.897 32.6571L110.14 32.22ZM107.17 29.22L106.733 29.4623L106.734 29.4651L107.17 29.22ZM110.23 17.25L109.99 16.8113L109.99 16.8113L110.23 17.25ZM118.81 17.25L119.05 16.8113L119.05 16.8113L118.81 17.25ZM121.81 29.19L121.379 28.9377L121.81 29.19ZM118.69 32.22L118.927 32.6602L118.93 32.6589L118.69 32.22ZM116.83 29.67L116.593 29.2297L116.588 29.2324L116.83 29.67ZM118.72 27.78L118.286 27.5319L118.286 27.5319L118.72 27.78ZM118.75 21.69L118.312 21.9302L118.314 21.9346L118.75 21.69ZM112 19.8L111.758 19.3624L111.753 19.3652L112 19.8ZM110.23 21.69L110.671 21.9264L110.673 21.922L110.23 21.69ZM110.92 28.86L110.552 29.1983L110.559 29.206L110.92 28.86ZM114.37 32.77C112.888 32.77 111.563 32.4383 110.383 31.7829L109.897 32.6571C111.238 33.4017 112.732 33.77 114.37 33.77V32.77ZM110.388 31.7859C109.208 31.1113 108.282 30.1771 107.606 28.9749L106.734 29.4651C107.498 30.8229 108.553 31.8887 109.892 32.6541L110.388 31.7859ZM107.608 28.9778C106.934 27.762 106.59 26.3476 106.59 24.72H105.59C105.59 26.4924 105.966 28.078 106.733 29.4622L107.608 28.9778ZM106.59 24.72C106.59 23.1158 106.943 21.713 107.635 20.4973L106.766 20.0027C105.978 21.387 105.59 22.9642 105.59 24.72H106.59ZM107.635 20.4973C108.33 19.2758 109.274 18.343 110.47 17.6887L109.99 16.8113C108.627 17.557 107.55 18.6242 106.766 20.0027L107.635 20.4973ZM110.47 17.6887C111.671 17.0322 113.017 16.7 114.52 16.7V15.7C112.863 15.7 111.35 16.0678 109.99 16.8113L110.47 17.6887ZM114.52 16.7C116.023 16.7 117.37 17.0322 118.57 17.6887L119.05 16.8113C117.691 16.0678 116.177 15.7 114.52 15.7V16.7ZM118.57 17.6887C119.767 18.343 120.71 19.2758 121.406 20.4973L122.275 20.0027C121.49 18.6242 120.414 17.557 119.05 16.8113L118.57 17.6887ZM121.406 20.4973C122.098 21.713 122.45 23.1158 122.45 24.72H123.45C123.45 22.9642 123.063 21.387 122.275 20.0027L121.406 20.4973ZM122.45 24.72C122.45 26.3218 122.089 27.7228 121.379 28.9377L122.242 29.4423C123.052 28.0572 123.45 26.4782 123.45 24.72H122.45ZM121.379 28.9377C120.664 30.1592 119.691 31.1047 118.451 31.7811L118.93 32.6589C120.33 31.8953 121.436 30.8208 122.242 29.4423L121.379 28.9377ZM118.453 31.7798C117.231 32.4378 115.873 32.77 114.37 32.77V33.77C116.027 33.77 117.549 33.4022 118.927 32.6602L118.453 31.7798ZM114.37 30.8C115.334 30.8 116.237 30.5691 117.072 30.1076L116.588 29.2324C115.903 29.6109 115.167 29.8 114.37 29.8V30.8ZM117.067 30.1102C117.937 29.6418 118.632 28.9415 119.154 28.0281L118.286 27.5319C117.848 28.2985 117.283 28.8582 116.593 29.2298L117.067 30.1102ZM119.154 28.0281C119.687 27.0964 119.94 25.9863 119.94 24.72H118.94C118.94 25.8537 118.714 26.7836 118.286 27.5319L119.154 28.0281ZM119.94 24.72C119.94 23.4575 119.698 22.358 119.186 21.4454L118.314 21.9346C118.722 22.662 118.94 23.5825 118.94 24.72H119.94ZM119.189 21.4498C118.688 20.5356 118.013 19.8329 117.162 19.3624L116.678 20.2376C117.347 20.6071 117.892 21.1644 118.312 21.9302L119.189 21.4498ZM117.162 19.3624C116.327 18.9009 115.424 18.67 114.46 18.67V19.67C115.257 19.67 115.993 19.8591 116.678 20.2376L117.162 19.3624ZM114.46 18.67C113.497 18.67 112.593 18.9009 111.758 19.3624L112.242 20.2376C112.927 19.8591 113.664 19.67 114.46 19.67V18.67ZM111.753 19.3652C110.921 19.8379 110.267 20.543 109.787 21.458L110.673 21.922C111.074 21.157 111.6 20.6021 112.247 20.2348L111.753 19.3652ZM109.79 21.4536C109.301 22.3643 109.07 23.4607 109.07 24.72H110.07C110.07 23.5793 110.279 22.6557 110.671 21.9264L109.79 21.4536ZM109.07 24.72C109.07 26.5822 109.542 28.0985 110.552 29.1982L111.288 28.5218C110.498 27.6615 110.07 26.4178 110.07 24.72H109.07ZM110.559 29.206C111.577 30.2685 112.86 30.8 114.37 30.8V29.8C113.121 29.8 112.103 29.3715 111.281 28.514L110.559 29.206ZM139.021 20.7H139.521V20.2H139.021V20.7ZM139.021 23.58V24.08H139.521V23.58H139.021ZM126.691 23.58H126.191V24.08H126.691V23.58ZM126.691 20.7V20.2H126.191V20.7H126.691ZM138.521 20.7V23.58H139.521V20.7H138.521ZM139.021 23.08H126.691V24.08H139.021V23.08ZM127.191 23.58V20.7H126.191V23.58H127.191ZM126.691 21.2H139.021V20.2H126.691V21.2ZM146.82 32.22L146.572 32.6542L146.577 32.6571L146.82 32.22ZM143.85 29.22L143.412 29.4623L143.414 29.4651L143.85 29.22ZM146.91 17.25L146.67 16.8113L146.67 16.8113L146.91 17.25ZM155.49 17.25L155.73 16.8113L155.73 16.8113L155.49 17.25ZM158.49 29.19L158.058 28.9377L158.49 29.19ZM155.37 32.22L155.607 32.6602L155.609 32.6589L155.37 32.22ZM153.51 29.67L153.273 29.2297L153.268 29.2324L153.51 29.67ZM155.4 27.78L154.966 27.5319L154.966 27.5319L155.4 27.78ZM155.43 21.69L154.991 21.9302L154.994 21.9346L155.43 21.69ZM148.68 19.8L148.438 19.3624L148.433 19.3652L148.68 19.8ZM146.91 21.69L147.35 21.9264L147.353 21.922L146.91 21.69ZM147.6 28.86L147.232 29.1983L147.239 29.206L147.6 28.86ZM151.05 32.77C149.568 32.77 148.242 32.4383 147.063 31.7829L146.577 32.6571C147.917 33.4017 149.412 33.77 151.05 33.77V32.77ZM147.068 31.7859C145.887 31.1113 144.962 30.1771 144.286 28.9749L143.414 29.4651C144.178 30.8229 145.232 31.8887 146.572 32.6541L147.068 31.7859ZM144.287 28.9778C143.614 27.762 143.27 26.3476 143.27 24.72H142.27C142.27 26.4924 142.646 28.078 143.412 29.4622L144.287 28.9778ZM143.27 24.72C143.27 23.1158 143.622 21.713 144.314 20.4973L143.445 20.0027C142.657 21.387 142.27 22.9642 142.27 24.72H143.27ZM144.314 20.4973C145.01 19.2758 145.953 18.343 147.15 17.6887L146.67 16.8113C145.306 17.557 144.23 18.6242 143.445 20.0027L144.314 20.4973ZM147.15 17.6887C148.35 17.0322 149.697 16.7 151.2 16.7V15.7C149.543 15.7 148.03 16.0678 146.67 16.8113L147.15 17.6887ZM151.2 16.7C152.703 16.7 154.05 17.0322 155.25 17.6887L155.73 16.8113C154.37 16.0678 152.857 15.7 151.2 15.7V16.7ZM155.25 17.6887C156.446 18.343 157.39 19.2758 158.085 20.4973L158.954 20.0027C158.17 18.6242 157.093 17.557 155.73 16.8113L155.25 17.6887ZM158.085 20.4973C158.777 21.713 159.13 23.1158 159.13 24.72H160.13C160.13 22.9642 159.742 21.387 158.954 20.0027L158.085 20.4973ZM159.13 24.72C159.13 26.3218 158.768 27.7228 158.058 28.9377L158.922 29.4423C159.731 28.0572 160.13 26.4782 160.13 24.72H159.13ZM158.058 28.9377C157.344 30.1592 156.37 31.1047 155.13 31.7811L155.609 32.6589C157.009 31.8953 158.116 30.8208 158.922 29.4423L158.058 28.9377ZM155.133 31.7798C153.911 32.4378 152.553 32.77 151.05 32.77V33.77C152.707 33.77 154.229 33.4022 155.607 32.6602L155.133 31.7798ZM151.05 30.8C152.013 30.8 152.917 30.5691 153.752 30.1076L153.268 29.2324C152.583 29.6109 151.846 29.8 151.05 29.8V30.8ZM153.747 30.1102C154.617 29.6418 155.312 28.9415 155.834 28.0281L154.966 27.5319C154.528 28.2985 153.963 28.8582 153.273 29.2298L153.747 30.1102ZM155.834 28.0281C156.366 27.0964 156.62 25.9863 156.62 24.72H155.62C155.62 25.8537 155.393 26.7836 154.966 27.5319L155.834 28.0281ZM156.62 24.72C156.62 23.4575 156.378 22.358 155.866 21.4454L154.994 21.9346C155.402 22.662 155.62 23.5825 155.62 24.72H156.62ZM155.868 21.4498C155.368 20.5356 154.693 19.8329 153.842 19.3624L153.358 20.2376C154.027 20.6071 154.572 21.1644 154.991 21.9302L155.868 21.4498ZM153.842 19.3624C153.007 18.9009 152.103 18.67 151.14 18.67V19.67C151.936 19.67 152.673 19.8591 153.358 20.2376L153.842 19.3624ZM151.14 18.67C150.176 18.67 149.273 18.9009 148.438 19.3624L148.922 20.2376C149.607 19.8591 150.343 19.67 151.14 19.67V18.67ZM148.433 19.3652C147.6 19.8379 146.946 20.543 146.467 21.458L147.353 21.922C147.754 21.157 148.28 20.6021 148.927 20.2348L148.433 19.3652ZM146.469 21.4536C145.981 22.3643 145.75 23.4607 145.75 24.72H146.75C146.75 23.5793 146.959 22.6557 147.35 21.9264L146.469 21.4536ZM145.75 24.72C145.75 26.5822 146.222 28.0985 147.232 29.1982L147.968 28.5218C147.178 27.6615 146.75 26.4178 146.75 24.72H145.75ZM147.239 29.206C148.257 30.2685 149.539 30.8 151.05 30.8V29.8C149.8 29.8 148.783 29.3715 147.961 28.514L147.239 29.206ZM174.831 17.01L174.597 17.4519L174.6 17.4537L174.831 17.01ZM177.261 19.41L176.822 19.65L176.822 19.65L177.261 19.41ZM178.131 33V33.5H178.631V33H178.131ZM174.741 33H174.241V33.5H174.741V33ZM173.631 20.37L173.264 20.7095L173.268 20.7141L173.631 20.37ZM167.541 20.37L167.178 20.0256L167.178 20.0259L167.541 20.37ZM166.431 33V33.5H166.931V33H166.431ZM163.011 33H162.511V33.5H163.011V33ZM163.011 16.47V15.97H162.511V16.47H163.011ZM166.431 16.47H166.931V15.97H166.431V16.47ZM166.431 18.36H165.931V19.7537L166.817 18.6779L166.431 18.36ZM168.561 16.77L168.363 16.311L168.359 16.3127L168.561 16.77ZM171.351 16.7C172.58 16.7 173.658 16.9547 174.597 17.4519L175.065 16.5681C173.964 15.9853 172.722 15.7 171.351 15.7V16.7ZM174.6 17.4537C175.549 17.9465 176.288 18.6742 176.822 19.65L177.699 19.17C177.073 18.0258 176.192 17.1535 175.061 16.5663L174.6 17.4537ZM176.822 19.65C177.353 20.6207 177.631 21.8139 177.631 23.25H178.631C178.631 21.6861 178.328 20.3193 177.699 19.17L176.822 19.65ZM177.631 23.25V33H178.631V23.25H177.631ZM178.131 32.5H174.741V33.5H178.131V32.5ZM175.241 33V23.76H174.241V33H175.241ZM175.241 23.76C175.241 22.2008 174.85 20.929 173.993 20.0259L173.268 20.7141C173.891 21.371 174.241 22.3592 174.241 23.76H175.241ZM173.998 20.0305C173.147 19.1102 171.994 18.67 170.601 18.67V19.67C171.768 19.67 172.635 20.0298 173.264 20.7095L173.998 20.0305ZM170.601 18.67C169.208 18.67 168.048 19.1102 167.178 20.0256L167.903 20.7144C168.554 20.0298 169.434 19.67 170.601 19.67V18.67ZM167.178 20.0259C166.321 20.929 165.931 22.2008 165.931 23.76H166.931C166.931 22.3592 167.28 21.371 167.903 20.7141L167.178 20.0259ZM165.931 23.76V33H166.931V23.76H165.931ZM166.431 32.5H163.011V33.5H166.431V32.5ZM163.511 33V16.47H162.511V33H163.511ZM163.011 16.97H166.431V15.97H163.011V16.97ZM165.931 16.47V18.36H166.931V16.47H165.931ZM166.817 18.6779C167.324 18.0621 167.969 17.578 168.763 17.2273L168.359 16.3127C167.432 16.722 166.658 17.2979 166.045 18.0421L166.817 18.6779ZM168.759 17.229C169.575 16.8767 170.437 16.7 171.351 16.7V15.7C170.304 15.7 169.307 15.9033 168.363 16.311L168.759 17.229ZM197.523 26.01V26.51H197.95L198.017 26.089L197.523 26.01ZM184.893 26.01V25.51H184.354L184.395 26.0478L184.893 26.01ZM186.363 29.19L186.027 29.56L186.027 29.56L186.363 29.19ZM193.503 28.08V27.58H193.192L193.055 27.8587L193.503 28.08ZM197.193 28.08L197.668 28.2362L197.884 27.58H197.193V28.08ZM194.463 31.83L194.76 32.2322L194.761 32.2315L194.463 31.83ZM185.343 32.22L185.092 32.6525L185.1 32.6571L185.343 32.22ZM182.403 29.22L181.963 29.4571L181.967 29.4651L182.403 29.22ZM182.373 20.25L181.933 20.0129L181.932 20.0154L182.373 20.25ZM185.283 17.25L185.04 16.8129L185.037 16.8146L185.283 17.25ZM193.773 17.22L194.017 16.7833L194.017 16.7833L193.773 17.22ZM196.623 20.1L196.185 20.3404L196.186 20.3434L196.623 20.1ZM194.073 23.25V23.75H194.581L194.573 23.2421L194.073 23.25ZM192.723 20.22L193.05 19.8416L193.05 19.8416L192.723 20.22ZM186.423 20.22L186.754 20.5952L186.759 20.5908L186.423 20.22ZM184.923 23.25L184.427 23.188L184.357 23.75H184.923V23.25ZM197.143 24.33C197.143 24.9292 197.104 25.4622 197.029 25.931L198.017 26.089C198.102 25.5578 198.143 24.9708 198.143 24.33H197.143ZM197.523 25.51H184.893V26.51H197.523V25.51ZM184.395 26.0478C184.503 27.4795 185.041 28.664 186.027 29.56L186.7 28.82C185.925 28.116 185.483 27.1805 185.392 25.9722L184.395 26.0478ZM186.027 29.56C187.006 30.4503 188.209 30.89 189.603 30.89V29.89C188.437 29.89 187.48 29.5297 186.7 28.82L186.027 29.56ZM189.603 30.89C190.593 30.89 191.471 30.6824 192.213 30.2427C192.957 29.8018 193.535 29.146 193.952 28.3013L193.055 27.8587C192.712 28.554 192.259 29.0532 191.703 29.3823C191.146 29.7126 190.453 29.89 189.603 29.89V30.89ZM193.503 28.58H197.193V27.58H193.503V28.58ZM196.718 27.9238C196.251 29.3429 195.405 30.5083 194.165 31.4285L194.761 32.2315C196.162 31.1917 197.135 29.8571 197.668 28.2362L196.718 27.9238ZM194.166 31.4278C192.968 32.3123 191.458 32.77 189.603 32.77V33.77C191.628 33.77 193.358 33.2677 194.76 32.2322L194.166 31.4278ZM189.603 32.77C188.1 32.77 186.765 32.4378 185.586 31.7829L185.1 32.6571C186.442 33.4022 187.947 33.77 189.603 33.77V32.77ZM185.594 31.7876C184.433 31.1135 183.516 30.1791 182.839 28.9749L181.967 29.4651C182.73 30.8209 183.773 31.8865 185.092 32.6524L185.594 31.7876ZM182.843 28.983C182.188 27.7662 181.853 26.3499 181.853 24.72H180.853C180.853 26.4901 181.218 28.0738 181.963 29.457L182.843 28.983ZM181.853 24.72C181.853 23.0876 182.179 21.6808 182.815 20.4846L181.932 20.0154C181.207 21.3792 180.853 22.9524 180.853 24.72H181.853ZM182.813 20.487C183.47 19.267 184.374 18.3372 185.529 17.6854L185.037 16.8146C183.712 17.5628 182.676 18.633 181.933 20.0129L182.813 20.487ZM185.526 17.6871C186.703 17.0333 188.057 16.7 189.603 16.7V15.7C187.909 15.7 186.383 16.0667 185.04 16.8129L185.526 17.6871ZM189.603 16.7C191.088 16.7 192.393 17.0229 193.53 17.6567L194.017 16.7833C192.714 16.0571 191.238 15.7 189.603 15.7V16.7ZM193.53 17.6567C194.666 18.2903 195.549 19.1818 196.185 20.3404L197.062 19.8596C196.337 18.5382 195.32 17.5097 194.017 16.7833L193.53 17.6567ZM196.186 20.3434C196.819 21.4788 197.143 22.8027 197.143 24.33H198.143C198.143 22.6573 197.787 21.1612 197.06 19.8566L196.186 20.3434ZM194.573 23.2421C194.551 21.853 194.048 20.7032 193.05 19.8416L192.396 20.5984C193.159 21.2568 193.555 22.127 193.573 23.2579L194.573 23.2421ZM193.05 19.8416C192.068 18.9938 190.858 18.58 189.453 18.58V19.58C190.648 19.58 191.618 19.9262 192.396 20.5984L193.05 19.8416ZM189.453 18.58C188.155 18.58 187.024 19.0023 186.088 19.8492L186.759 20.5908C187.503 19.9177 188.391 19.58 189.453 19.58V18.58ZM186.093 19.8448C185.147 20.6777 184.6 21.8065 184.427 23.188L185.419 23.312C185.567 22.1335 186.019 21.2423 186.754 20.5952L186.093 19.8448ZM184.923 23.75H194.073V22.75H184.923V23.75Z" fill="white"/>
</svg>
